<?xml version="1.0" encoding="UTF-8"?>
<svg id="Layer_1" xmlns="http://www.w3.org/2000/svg" version="1.1" viewBox="0 0 212.74 72.97">
  <!-- Generator: Adobe Illustrator 30.6.0, SVG Export Plug-In . SVG Version: 2.1.4 Build 109)  -->
  <defs>
    <style>
      .st0 {
        fill: #2a306f;
      }

      .st1 {
        fill: #f37321;
      }
    </style>
  </defs>
  <g>
    <path class="st1" d="M89.53,14.26c1.57-.08,4.24-.15,6.65-.15,6.69,0,10.28,3.09,10.28,12.65s-4.16,13.37-10.85,13.37c-2.22,0-4.2-.08-6.07-.19V14.26ZM94.15,35.96c.5.08,1.26.15,1.95.15,3.4,0,5.39-2.45,5.39-9.09s-1.53-8.98-5.23-8.98c-.8,0-1.57.04-2.1.08v17.84Z"/>
    <path class="st1" d="M122.79,38.57c-1.76.87-3.76,1.41-5.86,1.44-4.99.06-7.5-2.68-7.58-9.27-.06-5.18,1.84-9.79,7.09-9.85,4.29-.05,6.47,2.92,6.53,7.98,0,.7-.02,1.63-.08,2.4l-9.06.11v.26c.04,3.44,1.39,4.94,3.76,4.91,1.55-.02,2.81-.4,4.28-1.12l.92,3.13ZM113.79,28.36l4.81-.06c-.03-2.77-.75-4.13-2.3-4.11-1.7.02-2.38,1.84-2.5,4.17Z"/>
    <path class="st1" d="M148.65,38.5c-1.95.98-4.42,1.57-6.97,1.6-6.54.08-9.44-4.21-9.54-12.31s2.76-13.31,10.2-13.4c2.11-.03,4.33.43,6.15,1.18l-1.28,4.05c-1.56-.68-3.23-1.18-5.04-1.16-4.14.05-5.36,3.39-5.29,8.83.07,6.1,1.73,8.82,5.13,8.78.81,0,1.55-.17,2.14-.4l-.11-8.87,4.47-.05.14,11.76Z"/>
    <path class="st1" d="M160.47,25.64c-2.71-.63-4.01,1.6-3.95,6.78l.09,7.51-4.4.05-.22-18.38,4.03-.05c.01.92-.15,2.52-.33,3.59h.07c.82-2.49,2.24-4.28,4.91-4.02l-.2,4.51Z"/>
    <path class="st1" d="M168.78,40.15c-5.07.06-7.1-3.06-7.17-9.27-.07-5.88,2.4-9.79,7.5-9.85,5.07-.06,7.1,3.06,7.17,9.27.07,5.88-2.4,9.79-7.5,9.85ZM168.85,24.62c-1.85.02-2.79,2.07-2.74,5.8.05,4.07.89,6.13,2.92,6.1,1.89-.02,2.82-2.03,2.78-5.77-.05-4.07-.89-6.17-2.96-6.14Z"/>
    <path class="st1" d="M185.27,39.95c-5.07.06-7.1-3.06-7.17-9.27-.07-5.88,2.4-9.79,7.5-9.85s7.1,3.06,7.17,9.27c.07,5.88-2.4,9.79-7.5,9.85ZM185.34,24.42c-1.85.02-2.79,2.07-2.74,5.8.05,4.07.89,6.13,2.92,6.1,1.89-.02,2.82-2.03,2.78-5.77-.05-4.07-.89-6.17-2.96-6.14Z"/>
    <path class="st1" d="M204.46,39.14c-.96.38-2.17.62-3.28.63-3.4.04-4.57-1.65-4.62-5.82l-.11-9.43-2.29.03-.04-3.44,2.29-.03-.06-4.88,4.35-1.24.07,6.06,3.25-.04.04,3.44-3.25.04.1,8.73c.03,2.29.44,3.03,1.59,3.01.48,0,1.11-.12,1.62-.31l.33,3.25Z"/>
    <g>
      <path class="st1" d="M47.67,62.01v-17.45h1.74v15.7h2.87v1.74h-4.61Z"/>
      <path class="st1" d="M54.83,62.01v-17.45h4.11v1.74h-2.37v5.48h2.37v1.74h-2.37v6.73h2.37v1.74h-4.11Z"/>
      <path class="st1" d="M64.67,46.31v15.7h-1.74v-15.7h-1.75v-1.74h5.23v1.74h-1.75Z"/>
      <path class="st1" d="M73.25,62.01v-6.23c0-.57-.5-1-1-1h-1v7.23h-1.74v-15.21l-1.25-1.25,1.25-1.25.82.82c.5-.52,1.17-.82,1.92-.82,1.5,0,2.74,1.25,2.74,2.74v4.99c0,.7-.3,1.37-.75,1.87.5.5.75,1.17.75,1.87v6.23h-1.75ZM73.25,47.05c0-.55-.47-1-1-1s-1,.45-1,1v5.98h1c.5,0,1-.5,1-1v-4.99Z"/>
      <path class="st1" d="M82.27,62.01v-6.61h-1.99v6.61h-1.74v-14.96c0-1.5,1.25-2.74,2.74-2.74s2.74,1.25,2.74,2.74v14.96h-1.75ZM82.27,47.05c0-.55-.45-1-1-1s-1,.45-1,1v6.61h1.99v-6.61Z"/>
      <path class="st1" d="M90.05,62.26c-1.5,0-2.74-1.25-2.74-2.74v-1.87h1.75v1.87c0,.55.45,1,1,1s1-.45,1-1v-3.12l-3.74-6.23v-3.12c0-1.5,1.25-2.74,2.74-2.74s2.74,1.25,2.74,2.74v1.87h-1.74v-1.87c0-.55-.45-1-1-1s-1,.45-1,1v2.62l3.74,6.23v3.61c0,1.5-1.25,2.74-2.74,2.74Z"/>
      <path class="st1" d="M103.86,62.01h-2.74v-17.45h2.74c1.5,0,2.74,1.25,2.74,2.74v11.96c0,1.5-1.25,2.74-2.74,2.74ZM104.86,47.3c0-.5-.5-1-1-1h-1v13.96h1c.5,0,1-.5,1-1v-11.96Z"/>
      <path class="st1" d="M110.27,62.01v-17.45h1.74v17.45h-1.74Z"/>
      <path class="st1" d="M118.42,62.01c-1.5,0-2.74-1.25-2.74-2.74v-11.96c0-1.5,1.25-2.74,2.74-2.74h2.74v2.99h-1.74v-1.25h-1c-.5,0-1,.5-1,1v11.96c0,.5.5,1,1,1h1v-4.86h-.75v-1.74h2.49v8.35h-2.74Z"/>
      <path class="st1" d="M124.82,62.01v-17.45h1.74v17.45h-1.74Z"/>
      <path class="st1" d="M132.97,46.31v15.7h-1.75v-15.7h-1.74v-1.74h5.23v1.74h-1.74Z"/>
      <path class="st1" d="M141.25,62.01v-6.61h-1.99v6.61h-1.74v-14.96c0-1.5,1.25-2.74,2.74-2.74s2.74,1.25,2.74,2.74v14.96h-1.75ZM141.25,47.05c0-.55-.45-1-1-1s-1,.45-1,1v6.61h1.99v-6.61Z"/>
      <path class="st1" d="M146.54,62.01v-17.45h1.74v15.7h2.87v1.74h-4.61Z"/>
      <path class="st1" d="M153.69,62.01v-17.45h4.11v1.74h-2.37v5.48h2.37v1.74h-2.37v6.73h2.37v1.74h-4.11Z"/>
      <path class="st1" d="M163.34,62.26c-1.5,0-2.74-1.25-2.74-2.74v-1.87h1.75v1.87c0,.55.45,1,1,1s1-.45,1-1v-3.12l-3.74-6.23v-3.12c0-1.5,1.25-2.74,2.74-2.74s2.74,1.25,2.74,2.74v1.87h-1.74v-1.87c0-.55-.45-1-1-1s-1,.45-1,1v2.62l3.74,6.23v3.61c0,1.5-1.25,2.74-2.74,2.74Z"/>
    </g>
    <path class="st1" d="M15.55,39.86l-.36-30.06,3.87-.05.31,26.2,4.51-.05.05,3.86-8.37.1Z"/>
    <path class="st1" d="M26.2,39.74l-.21-17.61-1.93.02-.05-3.86,5.8-.07.26,21.47-3.87.05ZM25.9,15.04l-.05-3.86,3.87-.05.05,3.86-3.87.05Z"/>
    <path class="st1" d="M38.36,40.02c-2.88.03-5.18-2.21-5.21-5.09l-.14-11.59c-.03-2.88,2.21-5.18,5.09-5.21l5.15-.06.07,6.01-3.86.05-.03-2.15-1.29.02c-.73,0-1.28.57-1.27,1.3l.14,11.59c0,.73.57,1.28,1.3,1.27s1.28-.57,1.27-1.3v-1.07s3.85-.05,3.85-.05v1.07c.05,2.88-2.2,5.18-5.08,5.21Z"/>
    <path class="st1" d="M52.52,39.79l-.05-4.17-2.63-4.31.1,8.5-3.86.05-.36-30.06,3.86-.05.18,15.24,2.52-4.67-.02-2.02,3.86-.05.03,2.66-4.12,7.05,4.29,6.95.06,4.81-3.86.05Z"/>
    <path class="st1" d="M63.99,39.71c-2.88.03-5.18-2.21-5.21-5.09l-.14-12.02c-.03-2.88,2.21-5.18,5.09-5.21s5.18,2.21,5.21,5.09l.14,12.02c.03,2.88-2.21,5.18-5.09,5.21ZM65.08,22.52c0-.73-.57-1.28-1.3-1.27s-1.28.57-1.27,1.3l.14,12.02c0,.73.57,1.28,1.3,1.27s1.28-.57,1.27-1.3l-.14-12.02Z"/>
  </g>
  <path class="st0" d="M94.31,22.32c.05,5.25-1.18,10.17-3.41,14.01l5.02,4.45-3.03,3.74c-1.8-1.56-3.41-3.03-4.92-4.4-2.55,2.51-5.82,3.97-9.56,3.97-6.44,0-9.37-3.83-9.37-8.8,0-4.4,2.37-7.19,4.97-9.65-2.89-3.88-3.64-6.48-3.64-8.9,0-4.07,2.84-7.48,7.71-7.48,4.35,0,7.05,2.6,7.05,6.81s-2.51,7-5.16,9.46c1.8,2.08,4.31,4.64,7.62,7.76,1.42-3.03,2.18-6.86,2.03-10.98h4.68ZM84.85,37.27c-3.5-3.31-6.2-6.1-8.28-8.47-1.51,1.7-2.6,3.55-2.6,5.91,0,3.17,1.85,5.25,4.92,5.25,2.27,0,4.31-.99,5.96-2.7ZM77.47,22.46c1.7-1.7,2.98-3.55,2.98-6.01,0-2.03-.9-3.41-2.7-3.41-1.56,0-2.7,1.28-2.7,3.41,0,1.56.52,3.36,2.41,6.01Z"/>
</svg>